<?xml version="1.0" ?><svg viewBox="0 0 64 64" xmlns="http://www.w3.org/2000/svg"><title/><g data-name="Line 2 color" id="Line_2_color"><path d="M31.999,49a1,1,0,0,1-.9912-.876c-.5937-4.7524-2.0976-4.956-4.1787-5.2373a7.5671,7.5671,0,0,1-3.3838-1.0547c-2.9082-1.94-4.706-.9131-4.7226-.9023a1,1,0,0,1-1.0664-1.6914c.1152-.0733,2.875-1.7529,6.8984.93a5.8413,5.8413,0,0,0,2.543.7368c2.2763.3081,5.1093.6909,5.8945,6.9712a1,1,0,0,1-.8682,1.1162A.9824.9824,0,0,1,31.999,49Z" style="fill:#00bcd4"/><path d="M30.6768,34.8022a.9913.9913,0,0,1-.3067-.0483l-2.6924-.8672a.9989.9989,0,0,1-.6865-1.0659c.3438-2.999-.3066-6.772-3.166-8.3677-3.625-2.0229-3.4814-4.2744-3.4541-4.5244a1,1,0,0,1,1.9912.1826c.0039.086.0918,1.2866,2.4375,2.5957,3.4424,1.9209,4.45,6.0323,4.249,9.52l1.3926.4487c.92-.8179,3.1543-2.83,4.8379-4.5469A3.8734,3.8734,0,0,1,39.22,27a4.8345,4.8345,0,0,0,3.459-.4741c1.1348-.5816,1.8887-2.5044,2.0645-3.1319a1,1,0,1,1,1.9257.5372c-.0927.3339-.97,3.2934-3.0781,4.374a6.8178,6.8178,0,0,1-4.6806.6709c-1.02-.1587-1.44-.2251-2.2032.5532-2.2148,2.2593-5.2441,4.9136-5.372,5.0254A.9981.9981,0,0,1,30.6768,34.8022Z" style="fill:#00bcd4"/><path d="M39,47.4141,37.5859,46l.7071-.707c.8945-.8951,1.1621-2.3677,1.4716-4.0733a16.9406,16.9406,0,0,1,1.3409-4.667c1.1718-2.3437,5.1972-3.4091,5.6523-3.5229l.9688-.2422.4853,1.9385-.9687.2436c-1.376.3467-3.7725,1.3257-4.3487,2.4776a15.1383,15.1383,0,0,0-1.1621,4.1294c-.3545,1.9506-.6885,3.7934-2.0254,5.13Z" style="fill:#00bcd4"/><path d="M33.7871,55.9316a1,1,0,0,1-.0752-1.997,21.8078,21.8078,0,0,0,7.4414-1.9234,1,1,0,0,1,.834,1.8184,23.8147,23.8147,0,0,1-8.123,2.0991C33.8389,55.9307,33.8125,55.9316,33.7871,55.9316Zm-5.0351-.1591a.9888.9888,0,0,1-.1407-.01,23.8053,23.8053,0,0,1-7.9726-2.6177,1,1,0,1,1,.9472-1.7607,21.8215,21.8215,0,0,0,7.3047,2.3979,1,1,0,0,1-.1386,1.99Zm17.1425-4.441a1,1,0,0,1-.6054-1.7963A22.0722,22.0722,0,0,0,50.5137,43.89a1,1,0,0,1,1.6816,1.0831,24.0586,24.0586,0,0,1-5.6973,6.1552A.9937.9937,0,0,1,45.8945,51.3315Zm-28.9336-.9282a.9973.9973,0,0,1-.6543-.2436,24.0353,24.0353,0,0,1-5.2939-6.5059,1,1,0,0,1,1.748-.9726,22.0294,22.0294,0,0,0,4.8545,5.9658,1,1,0,0,1-.6543,1.7563Zm36.64-9.4848a1.0005,1.0005,0,0,1-.9385-1.3448A21.9357,21.9357,0,0,0,54,32a1.0413,1.0413,0,0,1,1-1.0474.9609.9609,0,0,1,1,.9532V32a23.9108,23.9108,0,0,1-1.4609,8.2622A1.0007,1.0007,0,0,1,53.6006,40.9185ZM9.9375,39.5205a1,1,0,0,1-.959-.7173A24.01,24.01,0,0,1,8,32q0-.7719.0488-1.5327a.9789.9789,0,0,1,1.0625-.9341,1,1,0,0,1,.9336,1.062Q9.9995,31.2926,10,32a22.0207,22.0207,0,0,0,.8965,6.2368,1.0017,1.0017,0,0,1-.959,1.2837ZM54.4316,27.8989a1.0007,1.0007,0,0,1-.9746-.7788,21.83,21.83,0,0,0-2.99-7.0825,1,1,0,0,1,1.6777-1.0889,23.8343,23.8343,0,0,1,3.2637,7.729,1,1,0,0,1-.7549,1.1963A.9852.9852,0,0,1,54.4316,27.8989ZM9.9121,26.5674a1.0121,1.0121,0,0,1-.2793-.04,1,1,0,0,1-.6807-1.24,23.8312,23.8312,0,0,1,3.7227-7.52,1,1,0,1,1,1.6094,1.1875,21.8537,21.8537,0,0,0-3.4121,6.8906A1.0007,1.0007,0,0,1,9.9121,26.5674Zm38.2022-9.9766a.9987.9987,0,0,1-.7012-.2871,21.9459,21.9459,0,0,0-6.34-4.3516,1,1,0,1,1,.8262-1.8212,23.9273,23.9273,0,0,1,6.916,4.747,1,1,0,0,1-.7011,1.7129Zm-31.2188-.936a1,1,0,0,1-.6572-1.7539,23.9167,23.9167,0,0,1,7.1865-4.3233,1,1,0,0,1,.7148,1.8682,21.9085,21.9085,0,0,0-6.5869,3.9629A.9975.9975,0,0,1,16.8955,15.6548Zm19.8-5.1753a1.0032,1.0032,0,0,1-.2041-.021,22.304,22.304,0,0,0-7.6894-.228,1,1,0,0,1-.2872-1.9795,24.3825,24.3825,0,0,1,8.3829.25,1,1,0,0,1-.2022,1.979Z" style="fill:#eb4559"/><path d="M32,49A17,17,0,1,1,49,32,17.019,17.019,0,0,1,32,49Zm0-32A15,15,0,1,0,47,32,15.0167,15.0167,0,0,0,32,17Z" style="fill:#00bcd4"/></g></svg>