<?xml version="1.0" ?><!DOCTYPE svg  PUBLIC '-//W3C//DTD SVG 1.1//EN'  'http://www.w3.org/Graphics/SVG/1.1/DTD/svg11.dtd'><svg height="100%" style="fill-rule:evenodd;clip-rule:evenodd;stroke-linejoin:round;stroke-miterlimit:2;" version="1.1" viewBox="0 0 32 32" width="100%" xml:space="preserve" xmlns="http://www.w3.org/2000/svg" xmlns:serif="http://www.serif.com/" xmlns:xlink="http://www.w3.org/1999/xlink"><path d="M9.135,4.729c-0.083,-0.174 -0.258,-0.285 -0.451,-0.285c-0.193,0 -0.369,0.111 -0.452,0.285c0,0 -2.234,4.743 -2.234,6.773c-0,1.483 1.203,2.686 2.686,2.686c1.482,0 2.686,-1.203 2.686,-2.686c-0,-2.03 -2.235,-6.773 -2.235,-6.773Zm-0.451,1.417c-0.628,1.42 -1.686,4.016 -1.686,5.356c-0,0.931 0.755,1.686 1.686,1.686c0.93,0 1.686,-0.755 1.686,-1.686c-0,-1.34 -1.059,-3.936 -1.686,-5.356Z" style="fill:#ffffff;"/><path d="M16.508,4.729c-0.083,-0.174 -0.259,-0.285 -0.452,-0.285c-0.192,0 -0.368,0.111 -0.451,0.285c0,0 -2.235,4.743 -2.235,6.773c0,1.483 1.204,2.686 2.686,2.686c1.483,0 2.686,-1.203 2.686,-2.686c0,-2.03 -2.234,-6.773 -2.234,-6.773Zm-0.452,1.417c-0.627,1.42 -1.686,4.016 -1.686,5.356c0,0.931 0.756,1.686 1.686,1.686c0.931,0 1.686,-0.755 1.686,-1.686c0,-1.34 -1.058,-3.936 -1.686,-5.356Z" style="fill:#ffffff;"/><path d="M23.881,4.729c-0.083,-0.174 -0.259,-0.285 -0.452,-0.285c-0.193,0 -0.368,0.111 -0.451,0.285c-0,0 -2.235,4.743 -2.235,6.773c0,1.483 1.204,2.686 2.686,2.686c1.483,0 2.686,-1.203 2.686,-2.686c0,-2.03 -2.234,-6.773 -2.234,-6.773Zm-0.452,1.417c-0.627,1.42 -1.686,4.016 -1.686,5.356c0,0.931 0.756,1.686 1.686,1.686c0.931,0 1.686,-0.755 1.686,-1.686c0,-1.34 -1.059,-3.936 -1.686,-5.356Z" style="fill:#ffffff;"/><path d="M30.223,19.163c-2.187,-1.47 -4.644,-3.085 -7.279,-3.085c-0.563,0 -1.059,0.222 -1.515,0.573c-0.389,0.298 -0.749,0.694 -1.107,1.093c-0.316,0.351 -0.63,0.705 -0.973,0.969c-0.275,0.212 -0.566,0.365 -0.905,0.365c-1.091,0 -2.016,-0.718 -2.956,-1.404c-1.117,-0.814 -2.249,-1.596 -3.544,-1.596c-1.097,0 -1.988,0.797 -2.851,1.643c-0.361,0.355 -0.72,0.711 -1.105,0.977c-0.322,0.222 -0.661,0.38 -1.044,0.38c-0.872,0 -1.676,-0.38 -2.424,-0.9c-0.81,-0.564 -1.552,-1.295 -2.226,-1.957c-0.197,-0.193 -0.514,-0.19 -0.707,0.007c-0.194,0.197 -0.191,0.514 0.006,0.707c0.713,0.699 1.5,1.468 2.356,2.064c0.92,0.64 1.922,1.079 2.995,1.079c1.096,0 1.988,-0.797 2.85,-1.643c0.361,-0.354 0.72,-0.711 1.105,-0.977c0.322,-0.221 0.661,-0.38 1.045,-0.38c1.09,0 2.015,0.718 2.955,1.404c1.117,0.815 2.249,1.596 3.545,1.596c0.562,0 1.058,-0.221 1.515,-0.572c0.388,-0.299 0.748,-0.695 1.106,-1.094c0.317,-0.351 0.631,-0.705 0.973,-0.969c0.275,-0.211 0.567,-0.365 0.906,-0.365c2.442,0 4.694,1.552 6.721,2.915c0.229,0.154 0.539,0.093 0.693,-0.136c0.154,-0.229 0.094,-0.54 -0.135,-0.694Z" style="fill:#ffffff;"/><path d="M30.279,24.374c-2.187,-1.47 -4.644,-3.085 -7.279,-3.085c-0.562,0 -1.059,0.222 -1.515,0.573c-0.388,0.298 -0.749,0.694 -1.107,1.093c-0.316,0.351 -0.63,0.705 -0.973,0.969c-0.275,0.212 -0.566,0.365 -0.905,0.365c-1.091,0 -2.015,-0.718 -2.955,-1.404c-1.117,-0.814 -2.249,-1.596 -3.545,-1.596c-1.097,0 -1.988,0.797 -2.85,1.643c-0.361,0.355 -0.72,0.711 -1.106,0.977c-0.322,0.222 -0.661,0.38 -1.044,0.38c-0.871,0 -1.676,-0.38 -2.423,-0.9c-0.811,-0.564 -1.552,-1.295 -2.227,-1.957c-0.197,-0.193 -0.514,-0.19 -0.707,0.007c-0.193,0.197 -0.19,0.514 0.007,0.707c0.712,0.699 1.499,1.468 2.356,2.064c0.92,0.64 1.921,1.079 2.994,1.079c1.097,0 1.988,-0.797 2.85,-1.643c0.361,-0.354 0.72,-0.711 1.106,-0.977c0.322,-0.221 0.661,-0.38 1.044,-0.38c1.091,0 2.015,0.718 2.955,1.404c1.117,0.815 2.249,1.596 3.545,1.596c0.562,0 1.059,-0.221 1.515,-0.572c0.388,-0.299 0.749,-0.695 1.107,-1.094c0.316,-0.351 0.63,-0.705 0.973,-0.969c0.275,-0.211 0.566,-0.365 0.905,-0.365c2.442,0 4.695,1.552 6.721,2.915c0.229,0.154 0.54,0.093 0.694,-0.136c0.154,-0.229 0.093,-0.54 -0.136,-0.694Z" style="fill:#ffffff;"/><path d="M30.335,29.585c-2.186,-1.47 -4.643,-3.085 -7.279,-3.085c-0.562,0 -1.058,0.221 -1.515,0.572c-0.388,0.299 -0.748,0.695 -1.106,1.094c-0.317,0.351 -0.631,0.705 -0.973,0.969c-0.275,0.212 -0.567,0.365 -0.906,0.365c-1.09,0 -2.015,-0.718 -2.955,-1.404c-1.117,-0.814 -2.249,-1.596 -3.545,-1.596c-1.096,0 -1.988,0.797 -2.85,1.643c-0.361,0.354 -0.72,0.711 -1.105,0.977c-0.322,0.222 -0.661,0.38 -1.045,0.38c-0.871,-0 -1.676,-0.38 -2.423,-0.9c-0.81,-0.564 -1.552,-1.295 -2.226,-1.957c-0.197,-0.193 -0.514,-0.19 -0.707,0.007c-0.194,0.197 -0.191,0.514 0.006,0.707c0.713,0.699 1.5,1.468 2.356,2.064c0.92,0.64 1.922,1.079 2.994,1.079c1.097,-0 1.988,-0.797 2.851,-1.643c0.361,-0.354 0.72,-0.711 1.105,-0.977c0.322,-0.222 0.661,-0.38 1.044,-0.38c1.091,-0 2.016,0.718 2.956,1.404c1.117,0.814 2.249,1.596 3.544,1.596c0.563,-0 1.059,-0.221 1.515,-0.572c0.389,-0.299 0.749,-0.695 1.107,-1.094c0.316,-0.351 0.63,-0.705 0.973,-0.969c0.275,-0.212 0.566,-0.365 0.905,-0.365c2.442,-0 4.695,1.552 6.721,2.915c0.229,0.154 0.54,0.093 0.694,-0.136c0.154,-0.229 0.093,-0.54 -0.136,-0.694Z" style="fill:#ffffff;"/></svg>