<?xml version="1.0" ?><svg id="레이어_1" style="enable-background:new 0 0 100 100;" version="1.1" viewBox="0 0 100 100" xml:space="preserve" xmlns="http://www.w3.org/2000/svg" xmlns:xlink="http://www.w3.org/1999/xlink"><g id="레이어_7"><path d="M82,53.8c-1.3-6.5-4.3-12.5-8.8-17.4c-5.6-6.2-13.5-9.9-21.9-10.2V20c0.1-1-0.7-1.9-1.7-2s-1.9,0.7-2,1.7   c0,0.1,0,0.2,0,0.3v6.1c-7.9,0.7-15.3,4.3-20.7,10.2c-4.5,4.9-7.6,10.9-8.8,17.4c-0.2,1,0.5,2,1.5,2.2c0.4,0.1,0.8,0,1.1-0.1   c5.6-2.6,12.1-1.8,17,1.9c0.7,0.5,1.6,0.5,2.3,0c2.2-1.7,4.8-2.8,7.5-3.3v20.2l0,0c0.4,4.1,3.8,7.3,8,7.3h0.3   c4.5-0.2,7.2-3,7.5-7.9c0.1-1-0.6-2-1.7-2.1c-1-0.1-2,0.6-2.1,1.7c0,0.1,0,0.1,0,0.2c-0.2,3.7-2.1,4.3-3.9,4.4   c-2.3,0.1-4.2-1.6-4.4-3.8V54.3c3.2,0.2,6.3,1.4,8.9,3.4c0.3,0.2,0.7,0.4,1.1,0.4c0.4,0,0.8-0.1,1.1-0.4c4.9-3.8,11.4-4.5,17-1.9   c0.9,0.4,2.1,0,2.5-0.9C82,54.6,82,54.1,82,53.8z M61.2,54c-6.8-4.6-15.6-4.6-22.4,0c-4.8-3.2-10.7-4.2-16.2-2.8   c1.4-4.6,3.8-8.8,7-12.3C39.7,27.7,57,26.7,68.2,36.7c0.8,0.7,1.5,1.4,2.2,2.2c3.2,3.5,5.6,7.7,7,12.3C71.9,49.8,66,50.8,61.2,54   L61.2,54z"/></g></svg>